<?xml version="1.0" standalone="no"?>
<!DOCTYPE svg PUBLIC "-//W3C//DTD SVG 20010904//EN"
 "http://www.w3.org/TR/2001/REC-SVG-20010904/DTD/svg10.dtd">
<svg version="1.0" xmlns="http://www.w3.org/2000/svg"
 width="225.000000pt" height="225.000000pt" viewBox="0 0 225.000000 225.000000"
 preserveAspectRatio="xMidYMid meet">
<metadata>
Created by potrace 1.16, written by Peter Selinger 2001-2019
</metadata>
<g transform="translate(0.000000,225.000000) scale(0.100000,-0.100000)"
fill="#000000" stroke="none">
<path d="M747 1644 c-9 -55 -51 -110 -140 -182 -103 -84 -127 -115 -127 -161
0 -40 37 -106 85 -151 24 -22 23 -19 -9 34 -21 35 -36 73 -36 91 0 41 41 101
109 159 93 79 139 160 129 227 -3 18 -5 14 -11 -17z"/>
<path d="M741 1423 c-70 -42 -111 -92 -111 -136 0 -30 22 -80 48 -110 8 -9 18
-34 21 -55 l7 -37 18 28 c26 39 23 69 -13 125 -17 27 -31 57 -31 68 0 34 37
82 92 118 69 47 50 46 -31 -1z"/>
<path d="M1205 1250 c-4 -6 -5 -89 -3 -184 3 -173 3 -175 -21 -200 -18 -19
-22 -29 -14 -37 8 -8 20 -2 44 19 l34 30 3 191 c3 185 3 191 -17 191 -11 0
-23 -5 -26 -10z"/>
<path d="M1332 1147 c-21 -22 -29 -57 -16 -70 10 -9 34 4 34 19 0 7 11 21 25
30 24 16 27 16 45 -1 32 -29 24 -51 -45 -117 -95 -91 -86 -112 45 -106 52 2
65 6 68 21 3 15 -5 17 -57 17 -34 0 -61 4 -61 9 0 5 22 28 49 50 99 83 86 171
-27 171 -27 0 -45 -7 -60 -23z"/>
<path d="M1536 1155 c-3 -9 -6 -63 -6 -120 0 -130 4 -135 105 -135 82 0 105 6
105 26 0 10 -21 14 -77 16 l-78 3 -3 38 -3 37 69 0 c74 0 88 5 71 27 -8 8 -34
13 -76 13 l-64 0 3 38 3 37 75 5 c43 3 74 9 73 15 -2 6 -45 11 -97 13 -79 2
-95 0 -100 -13z"/>
<path d="M1786 1155 c-3 -9 -6 -63 -6 -120 0 -130 4 -135 105 -135 82 0 105 6
105 26 0 11 -18 14 -75 14 l-75 0 0 40 0 39 68 3 c52 2 67 6 67 18 0 12 -15
16 -67 18 l-68 3 0 39 0 39 73 3 c104 4 85 22 -27 26 -79 2 -95 0 -100 -13z"/>
</g>
</svg>
